<?xml version="1.0" standalone="no"?>
<!DOCTYPE svg PUBLIC "-//W3C//DTD SVG 20010904//EN"
 "http://www.w3.org/TR/2001/REC-SVG-20010904/DTD/svg10.dtd">
<svg version="1.0" xmlns="http://www.w3.org/2000/svg"
 width="1103.000000pt" height="355.000000pt" viewBox="0 0 1103.000000 355.000000"
 preserveAspectRatio="xMidYMid meet">

<g transform="translate(0.000000,355.000000) scale(0.100000,-0.100000)"
fill="#000000" stroke="none">
<path d="M300 3531 c-124 -48 -215 -144 -266 -276 -18 -48 -19 -100 -22 -1425
-2 -923 1 -1401 8 -1455 20 -154 103 -275 232 -340 l71 -35 5196 0 5196 0 61
29 c70 33 163 120 195 182 57 112 53 14 57 1504 1 819 -1 1402 -7 1449 -18
154 -107 281 -247 351 l-59 30 -5185 2 c-4943 2 -5187 1 -5230 -16z m2145
-857 c148 -17 340 -119 448 -237 82 -91 151 -217 184 -337 24 -89 24 -290 0
-380 -22 -81 -77 -198 -122 -262 -19 -26 -35 -52 -35 -56 0 -4 124 -131 276
-281 151 -150 279 -284 284 -297 16 -41 -11 -74 -60 -74 -14 0 -112 92 -299
280 -153 154 -284 280 -290 280 -6 0 -32 -15 -58 -34 -151 -107 -360 -160
-538 -137 -121 16 -263 68 -335 123 -14 10 -36 26 -48 36 -211 156 -329 439
-294 705 7 50 21 117 31 147 80 237 266 423 499 497 120 39 206 45 357 27z
m6973 -366 c1 -131 5 -238 8 -238 3 0 24 15 47 34 77 61 103 71 202 71 105 0
142 -16 187 -80 39 -56 48 -120 48 -341 0 -190 0 -194 23 -208 12 -8 34 -18
50 -21 20 -5 27 -13 27 -31 l0 -24 -210 0 -210 0 0 25 c0 18 5 25 19 25 10 0
29 8 40 18 22 17 22 22 19 244 -3 222 -3 227 -26 251 -46 48 -116 43 -184 -13
l-38 -31 0 -205 c0 -117 4 -213 10 -224 5 -10 26 -24 45 -30 27 -9 35 -17 35
-36 l0 -24 -212 2 c-203 3 -213 4 -213 22 0 14 10 22 35 28 72 18 70 3 70 459
0 456 -1 467 -60 488 -18 6 -41 11 -51 11 -14 0 -19 7 -19 25 0 14 1 26 3 26
7 4 232 16 287 15 l65 -1 3 -237z m-4578 171 c36 -5 92 -21 125 -34 59 -24 59
-24 80 -5 12 11 33 20 47 20 23 0 26 -5 32 -46 3 -26 6 -102 6 -170 l0 -124
-29 0 c-28 0 -33 7 -74 93 -56 118 -119 180 -203 197 -122 25 -214 -36 -214
-143 0 -84 54 -124 260 -192 138 -45 179 -65 229 -111 59 -52 84 -120 79 -213
-4 -89 -25 -138 -81 -194 -125 -125 -407 -150 -595 -53 -28 14 -30 14 -52 -9
-16 -17 -34 -25 -57 -25 l-33 0 -2 160 c-1 88 -2 168 -2 178 -1 11 8 18 25 20
24 3 31 -5 70 -79 81 -154 185 -232 308 -232 116 0 180 48 189 142 9 98 -36
138 -234 205 -202 67 -250 97 -298 186 -58 106 -43 227 40 319 49 55 109 87
199 106 76 17 104 17 185 4z m2230 1 c79 -13 209 -73 269 -126 105 -91 161
-225 161 -383 0 -162 -44 -276 -144 -377 -164 -164 -442 -200 -660 -86 -302
158 -358 581 -109 829 122 123 292 173 483 143z m-1069 -34 c79 -17 134 -44
171 -83 36 -38 48 -73 48 -145 0 -110 -46 -174 -167 -231 -35 -16 -63 -31 -63
-34 0 -11 247 -319 292 -364 29 -29 60 -50 80 -54 64 -13 69 -16 66 -38 -3
-22 -7 -22 -194 -25 l-190 -2 -86 127 c-113 167 -234 318 -256 318 -15 0 -17
-17 -20 -161 -2 -149 -1 -163 18 -187 14 -18 34 -28 65 -33 44 -6 65 -29 50
-54 -4 -6 -102 -10 -266 -10 l-260 0 3 27 c3 25 8 29 53 35 89 13 85 -6 85
433 0 434 6 407 -87 430 -41 10 -48 16 -51 39 l-3 26 323 0 c239 0 340 -4 389
-14z m2225 -291 c36 -24 64 -74 64 -118 0 -99 -85 -160 -172 -124 -49 21 -71
56 -66 107 3 35 1 40 -18 40 -11 0 -40 -14 -62 -30 l-42 -30 0 -215 c0 -246 0
-247 84 -259 40 -6 46 -10 46 -32 l0 -24 -229 0 c-182 0 -230 3 -234 13 -8 21
5 35 38 43 65 15 65 14 65 265 0 149 -4 237 -11 253 -11 23 -62 56 -88 56 -19
0 -13 48 7 54 9 2 85 6 167 8 l150 3 5 -53 5 -54 30 32 c79 83 191 111 261 65z
m699 -10 c50 -25 64 -38 83 -77 54 -109 -24 -203 -140 -169 -75 23 -94 69 -67
165 10 35 9 42 -8 53 -25 20 -82 7 -115 -25 -49 -45 -71 -122 -72 -247 -1 -95
2 -117 22 -160 42 -91 101 -135 182 -135 69 0 137 41 180 108 15 24 16 24 39
5 23 -18 23 -20 8 -50 -25 -48 -112 -120 -175 -143 -47 -18 -73 -21 -152 -18
-81 3 -105 8 -161 35 -128 60 -188 152 -196 302 -4 72 -1 96 17 144 42 110
122 186 245 230 38 13 74 17 150 15 88 -3 108 -7 160 -33z"/>
<path d="M2160 2541 c-84 -23 -126 -41 -193 -84 -123 -79 -224 -214 -269 -360
-32 -102 -32 -273 -1 -372 72 -226 241 -391 463 -451 87 -23 244 -23 329 0
357 97 563 457 467 815 -59 218 -252 403 -479 456 -85 20 -236 18 -317 -4z"/>
<path d="M6895 2405 c-123 -43 -196 -242 -181 -495 10 -168 38 -259 101 -328
65 -73 177 -92 258 -44 109 63 166 266 146 522 -21 270 -149 406 -324 345z"/>
<path d="M5680 2196 c0 -238 -6 -226 99 -208 99 17 143 58 163 152 22 105 -10
194 -84 232 -20 11 -68 22 -107 25 l-71 6 0 -207z"/>
</g>
</svg>
